<svg id="el09u4wmt3lo1" xmlns="http://www.w3.org/2000/svg" xmlns:xlink="http://www.w3.org/1999/xlink" viewBox="0 0 800 243" shape-rendering="geometricPrecision" text-rendering="geometricPrecision" width="800" height="243"><style><![CDATA[#el09u4wmt3lo22_tr {animation: el09u4wmt3lo22_tr__tr 6000ms linear infinite normal forwards}@keyframes el09u4wmt3lo22_tr__tr { 0% {transform: translate(126.435001px,121.494999px) rotate(0deg);animation-timing-function: cubic-bezier(0.390000,0.575000,0.565000,1)} 33.333333% {transform: translate(126.435001px,121.494999px) rotate(-180deg)} 100% {transform: translate(126.435001px,121.494999px) rotate(-180deg)} }#el09u4wmt3lo24_tr {animation: el09u4wmt3lo24_tr__tr 6000ms linear infinite normal forwards}@keyframes el09u4wmt3lo24_tr__tr { 0% {transform: translate(126.439999px,121.494999px) rotate(0deg);animation-timing-function: cubic-bezier(0.390000,0.575000,0.565000,1)} 33.333333% {transform: translate(126.439999px,121.494999px) rotate(-180deg)} 100% {transform: translate(126.439999px,121.494999px) rotate(-180deg)} }#el09u4wmt3lo26_tr {animation: el09u4wmt3lo26_tr__tr 6000ms linear infinite normal forwards}@keyframes el09u4wmt3lo26_tr__tr { 0% {transform: translate(126.440002px,121.504999px) rotate(0deg);animation-timing-function: cubic-bezier(0.470000,0,0.745000,0.715000)} 33.333333% {transform: translate(126.440002px,121.504999px) rotate(180deg)} 100% {transform: translate(126.440002px,121.504999px) rotate(180deg)} }#el09u4wmt3lo28_tr {animation: el09u4wmt3lo28_tr__tr 6000ms linear infinite normal forwards}@keyframes el09u4wmt3lo28_tr__tr { 0% {transform: translate(126.434998px,121.500000px) rotate(0deg);animation-timing-function: cubic-bezier(0.470000,0,0.745000,0.715000)} 33.333333% {transform: translate(126.434998px,121.500000px) rotate(180deg)} 100% {transform: translate(126.434998px,121.500000px) rotate(180deg)} }]]></style><g id="el09u4wmt3lo2"><g id="el09u4wmt3lo3"><path id="el09u4wmt3lo4" d="M273.300000,135.910000C265.810000,135.910000,260.330000,131.050000,260.330000,118.990000C260.330000,106.920000,265.880000,101.850000,273.080000,101.850000C277.400000,101.850000,280.640000,103.640000,284.170000,105.850000L286.910000,95.920000C283.160000,93.560000,278.620000,92.140000,273.080000,92.140000C258.760000,92.140000,248.600000,101.620000,248.590000,119.240000L248.590000,119.320000C248.610000,136.360000,258.040000,145.270000,271.720000,145.270000C277.770000,145.270000,283.170000,143.480000,287.210000,140.980000L284.470000,131.910000C280.860000,134.410000,277.470000,135.910000,273.300000,135.910000Z" fill="rgb(0,128,173)" stroke="none" stroke-width="1"/><path id="el09u4wmt3lo5" d="M308.230000,107.130000C297.710000,107.130000,289.720000,113.910000,289.720000,126.770000C289.720000,139.050000,297.070000,145.270000,308.600000,145.270000C313.860000,145.270000,319.330000,143.980000,323.220000,142.200000L321.060000,134.420000C317.030000,136.130000,313.640000,137.130000,310.250000,137.130000C305.860000,137.130000,302.470000,135.420000,301.610000,129.560000L323.940000,129.560000C324.160000,128.130000,324.230000,126.420000,324.230000,125.130000C324.230000,112.910000,317.890000,107.130000,308.230000,107.130000ZM301.460000,122.910000C301.890000,117.560000,304.410000,114.980000,307.940000,114.980000C311.180000,114.980000,313.560000,117.190000,313.560000,122.910000L301.460000,122.910000Z" fill="rgb(0,128,173)" stroke="none" stroke-width="1"/><path id="el09u4wmt3lo6" d="M353.830000,107.130000C348.860000,107.130000,344.750000,109.200000,341.510000,112.410000L341.510000,107.980000L329.910000,107.980000L329.910000,144.400000L341.510000,144.400000L341.510000,119.980000C343.740000,118.050000,346.050000,116.770000,348.500000,116.770000C350.660000,116.770000,351.960000,117.770000,351.960000,120.840000L351.960000,144.410000L363.560000,144.410000L363.560000,117.270000C363.560000,109.560000,359.170000,107.130000,353.830000,107.130000Z" fill="rgb(0,128,173)" stroke="none" stroke-width="1"/><path id="el09u4wmt3lo7" d="M383.800000,95.850000L372.200000,95.850000L372.200000,107.990000L366.940000,107.990000L366.940000,116.420000L372.200000,116.420000L372.200000,134.060000C372.200000,142.410000,375.150000,144.840000,383.370000,144.840000C386.180000,144.840000,388.630000,144.550000,390.650000,144.200000L390.650000,135.630000C389.570000,135.920000,388.270000,136.200000,386.900000,136.200000C384.590000,136.200000,383.800000,135.340000,383.800000,132.340000L383.800000,116.410000L390.640000,116.410000L390.640000,107.980000L383.800000,107.980000L383.800000,95.850000Z" fill="rgb(0,128,173)" stroke="none" stroke-width="1"/><path id="el09u4wmt3lo8" d="M425.950000,120.630000C425.950000,110.350000,420.190000,107.130000,411.110000,107.130000C405.130000,107.130000,399.800000,108.560000,395.410000,110.340000L397.570000,118.770000C401.460000,117.130000,405.060000,115.910000,408.590000,115.910000C412.550000,115.910000,414.640000,117.410000,414.640000,121.480000L414.640000,121.910000C412.840000,121.700000,410.890000,121.620000,409.530000,121.620000C398.440000,121.620000,393.460000,126.190000,393.460000,133.830000C393.460000,141.260000,398.140000,145.260000,404.410000,145.260000C408.370000,145.260000,411.970000,143.620000,414.780000,140.550000C415,142.980000,415.360000,143.840000,415.720000,144.410000L426.670000,144.410000C426.310000,143.620000,425.950000,142.130000,425.950000,136.130000L425.950000,120.630000ZM414.630000,134.620000C412.830000,135.980000,410.740000,137.050000,408.650000,137.050000C406.340000,137.050000,404.760000,135.760000,404.760000,132.690000C404.760000,129.620000,406.420000,128.050000,411.240000,128.050000C412.680000,128.050000,413.540000,128.190000,414.630000,128.410000L414.630000,134.620000Z" fill="rgb(0,128,173)" stroke="none" stroke-width="1"/><path id="el09u4wmt3lo9" d="M444.170000,113.480000L444.170000,107.980000L432.570000,107.980000L432.570000,144.400000L444.170000,144.400000L444.170000,121.120000C445.540000,119.910000,449.280000,117.120000,453.970000,117.120000C454.830000,117.120000,455.630000,117.120000,456.280000,117.190000L456.280000,107.340000C455.700000,107.200000,454.840000,107.120000,454.120000,107.120000C449.790000,107.130000,446.260000,109.770000,444.170000,113.480000Z" fill="rgb(0,128,173)" stroke="none" stroke-width="1"/><rect id="el09u4wmt3lo10" width="11.740000" height="51.420000" rx="0" ry="0" transform="matrix(1 0 0 1 461.95999999999998 92.98999999999999)" fill="rgb(0,128,173)" stroke="none" stroke-width="1"/><polygon id="el09u4wmt3lo11" points="511.740000,114.980000 511.740000,107.990000 480.980000,107.990000 480.980000,116.340000 497.400000,116.340000 479.900000,137.190000 479.900000,144.410000 511.880000,144.410000 511.880000,135.840000 494.230000,135.840000" fill="rgb(0,128,173)" stroke="none" stroke-width="1"/><polygon id="el09u4wmt3lo12" points="531.260000,131.480000 524.490000,107.990000 512.750000,107.990000 525.070000,144.410000 536.740000,144.410000 549.490000,107.990000 538.180000,107.990000" fill="rgb(0,128,173)" stroke="none" stroke-width="1"/><path id="el09u4wmt3lo13" d="M564.110000,113.480000L564.110000,107.980000L552.510000,107.980000L552.510000,144.400000L564.110000,144.400000L564.110000,121.120000C565.480000,119.910000,569.220000,117.120000,573.910000,117.120000C574.770000,117.120000,575.570000,117.120000,576.220000,117.190000L576.220000,107.340000C575.640000,107.200000,574.780000,107.120000,574.060000,107.120000C569.730000,107.130000,566.200000,109.770000,564.110000,113.480000Z" fill="rgb(0,128,173)" stroke="none" stroke-width="1"/><path id="el09u4wmt3lo14" d="M590.770000,118.410000C590.770000,116.770000,592.070000,115.620000,594.730000,115.620000C597.680000,115.620000,601.290000,116.980000,604.170000,118.760000L606.330000,110.050000C603.090000,108.340000,598.980000,107.120000,594.510000,107.120000C585.510000,107.120000,579.600000,111.760000,579.600000,119.260000C579.600000,131.900000,596.310000,128.120000,596.310000,133.760000C596.310000,135.690000,594.650000,137.120000,591.270000,137.120000C587.740000,137.120000,583.850000,135.690000,580.320000,133.830000L578.160000,142.260000C581.910000,144.120000,586.730000,145.260000,591.560000,145.260000C601.210000,145.260000,607.480000,140.550000,607.480000,132.620000C607.480000,119.700000,590.770000,123.770000,590.770000,118.410000Z" fill="rgb(0,128,173)" stroke="none" stroke-width="1"/><path id="el09u4wmt3lo15" d="M636.730000,107.130000C631.760000,107.130000,627.650000,109.200000,624.410000,112.410000L624.410000,107.980000L612.810000,107.980000L612.810000,144.400000L624.410000,144.400000L624.410000,119.980000C626.640000,118.050000,628.950000,116.770000,631.400000,116.770000C633.560000,116.770000,634.860000,117.770000,634.860000,120.840000L634.860000,144.410000L646.460000,144.410000L646.460000,117.270000C646.450000,109.560000,642.060000,107.130000,636.730000,107.130000Z" fill="rgb(0,128,173)" stroke="none" stroke-width="1"/><path id="el09u4wmt3lo16" d="M669.360000,107.130000C659.420000,107.130000,651.210000,113.200000,651.210000,126.340000C651.210000,139.340000,659.280000,145.260000,669.080000,145.260000C679.020000,145.260000,687.230000,139.190000,687.230000,126.050000C687.220000,113.060000,679.160000,107.130000,669.360000,107.130000ZM669.220000,137.190000C665.690000,137.190000,662.810000,134.330000,662.810000,126.340000C662.810000,118.340000,665.690000,115.490000,669.220000,115.490000C672.750000,115.490000,675.630000,118.350000,675.630000,126.340000C675.630000,134.340000,672.750000,137.190000,669.220000,137.190000Z" fill="rgb(0,128,173)" stroke="none" stroke-width="1"/><path id="el09u4wmt3lo17" d="M702.780000,118.410000C702.780000,116.770000,704.080000,115.620000,706.740000,115.620000C709.690000,115.620000,713.300000,116.980000,716.180000,118.760000L718.340000,110.050000C715.100000,108.340000,710.990000,107.120000,706.520000,107.120000C697.520000,107.120000,691.610000,111.760000,691.610000,119.260000C691.610000,131.900000,708.320000,128.120000,708.320000,133.760000C708.320000,135.690000,706.660000,137.120000,703.280000,137.120000C699.750000,137.120000,695.860000,135.690000,692.330000,133.830000L690.170000,142.260000C693.920000,144.120000,698.740000,145.260000,703.570000,145.260000C713.220000,145.260000,719.490000,140.550000,719.490000,132.620000C719.500000,119.700000,702.780000,123.770000,702.780000,118.410000Z" fill="rgb(0,128,173)" stroke="none" stroke-width="1"/><path id="el09u4wmt3lo18" d="M738.440000,95.850000L726.840000,95.850000L726.840000,107.990000L721.580000,107.990000L721.580000,116.420000L726.840000,116.420000L726.840000,134.060000C726.840000,142.410000,729.790000,144.840000,738.010000,144.840000C740.820000,144.840000,743.270000,144.550000,745.290000,144.200000L745.290000,135.630000C744.210000,135.920000,742.910000,136.200000,741.540000,136.200000C739.240000,136.200000,738.440000,135.340000,738.440000,132.340000L738.440000,116.410000L745.280000,116.410000L745.280000,107.980000L738.440000,107.980000L738.440000,95.850000Z" fill="rgb(0,128,173)" stroke="none" stroke-width="1"/><rect id="el09u4wmt3lo19" width="11.600000" height="36.420000" rx="0" ry="0" transform="matrix(1 0 0 1 750.69000000000005 107.98999999999999)" fill="rgb(0,128,173)" stroke="none" stroke-width="1"/><path id="el09u4wmt3lo20" d="M756.520000,103.850000C760.480000,103.850000,763,101.350000,763,97.850000C763,94.350000,760.480000,91.850000,756.520000,91.850000C752.560000,91.850000,749.960000,94.350000,749.960000,97.850000C749.970000,101.350000,752.560000,103.850000,756.520000,103.850000Z" fill="rgb(0,128,173)" stroke="none" stroke-width="1"/></g></g><g id="el09u4wmt3lo21"><g id="el09u4wmt3lo22_tr" transform="translate(126.435001,121.494999) rotate(0)"><polygon id="el09u4wmt3lo22" points="72.290000,196.120000 51.980000,175.770000 180.580000,46.870000 200.890000,67.220000" transform="translate(-126.435001,-121.494999)" fill="rgb(0,128,173)" stroke="none" stroke-width="1"/></g></g><g id="el09u4wmt3lo23"><g id="el09u4wmt3lo24_tr" transform="translate(126.439999,121.494999) rotate(0)"><polygon id="el09u4wmt3lo24" points="180.580000,196.120000 51.990000,67.220000 72.290000,46.870000 200.890000,175.770000" transform="translate(-126.439999,-121.494999)" fill="rgb(0,128,173)" stroke="none" stroke-width="1"/></g></g><g id="el09u4wmt3lo25"><g id="el09u4wmt3lo26_tr" transform="translate(126.440002,121.504999) rotate(0)"><rect id="el09u4wmt3lo26" width="28.720000" height="182.310000" rx="0" ry="0" transform="translate(-14.360002,-91.154999)" fill="rgb(171,136,39)" stroke="none" stroke-width="1"/></g></g><g id="el09u4wmt3lo27"><g id="el09u4wmt3lo28_tr" transform="translate(126.434998,121.500000) rotate(0)"><rect id="el09u4wmt3lo28" width="181.870000" height="28.780000" rx="0" ry="0" transform="translate(-90.934998,-14.390000)" fill="rgb(171,136,39)" stroke="none" stroke-width="1"/></g></g></svg>