<svg xmlns="http://www.w3.org/2000/svg" width="426" height="431.891" viewBox="0 0 426 431.891">
  <path id="plus-solid" d="M395.571,201.671H258.643V62.849A30.645,30.645,0,0,0,228.214,32H197.786a30.645,30.645,0,0,0-30.429,30.849V201.671H30.429A30.645,30.645,0,0,0,0,232.521V263.37a30.645,30.645,0,0,0,30.429,30.849H167.357V433.041a30.645,30.645,0,0,0,30.429,30.849h30.429a30.645,30.645,0,0,0,30.429-30.849V294.219H395.571A30.645,30.645,0,0,0,426,263.37V232.521A30.645,30.645,0,0,0,395.571,201.671Z" transform="translate(0 -32)" fill="#42a5f5"/>
</svg>
